# xmcd
#
# Track frame offsets:
#	182
#	21332
#	42417
#	57487
#	75047
#	88155
#	108302
#	132220
#	154085
#	167317
#	186207
#	204657
#
# Disc length: 3018 seconds
#
# Revision: 2
# Processed by: cddbd v1.4PL0 Copyright (c) Steve Scherf et al.
# Submitted via: CDmax 1.9
#
DISCID=940bc80c
DTITLE=Polish Rock Musicians - Tribute to Eric Clapton
DYEAR=1995
DGENRE=Blues
TTITLE0=Layla
TTITLE1=Wonderful Tonight
TTITLE2=Total Weakness (Wielka Slabosc)
TTITLE3=Sunshine of Your Love
TTITLE4=Crossroads
TTITLE5=Tears in Heaven
TTITLE6=Ain't That Loving You
TTITLE7=There's Nothing Wrong (To nic zlego)
TTITLE8=Wrapping Paper
TTITLE9=After Midnight
TTITLE10=Blues 4 AM (Blues 4 rano)
TTITLE11=Travelling East
EXTD=
EXTT0=
EXTT1=
EXTT2=
EXTT3=
EXTT4=
EXTT5=
EXTT6=
EXTT7=
EXTT8=
EXTT9=
EXTT10=
EXTT11=
PLAYORDER=
